<?xml version="1.0" encoding="utf-8"?>
<svg viewBox="0 0 50 50" xmlns="http://www.w3.org/2000/svg">
  <rect width="50" height="50" style="stroke: rgb(0, 0, 0); fill: rgb(231, 118, 48);"/>
  <path d="M -27.85799865722656 42.57000198364258 Q -34.85799865722656 42.57000198364258 -38.032998657226564 38.24500198364258 Q -41.20799865722656 33.92000198364258 -41.20799865722656 24.570001983642577 Q -41.20799865722656 15.570001983642577 -37.882998657226565 11.170001983642578 Q -34.55799865722656 6.7700019836425795 -27.60799865722656 6.7700019836425795 Q -25.257998657226562 6.7700019836425795 -23.257998657226562 7.320001983642577 Q -21.70799865722656 7.7700019836425795 -21.70799865722656 9.470001983642575 Q -21.70799865722656 11.370001983642577 -22.382998657226562 12.870001983642577 Q -23.057998657226562 14.370001983642577 -24.057998657226562 14.020001983642576 Q -25.65799865722656 13.520001983642576 -27.257998657226562 13.520001983642576 Q -30.257998657226562 13.520001983642576 -31.73299865722656 16.270001983642576 Q -33.20799865722656 19.020001983642576 -33.20799865722656 24.620001983642577 Q -33.20799865722656 30.220001983642575 -31.73299865722656 32.99500198364258 Q -30.257998657226562 35.77000198364258 -27.007998657226562 35.77000198364258 Q -26.057998657226562 35.77000198364258 -25.40799865722656 35.64500198364258 Q -24.757998657226562 35.52000198364258 -23.70799865722656 35.220001983642575 Q -23.557998657226562 35.17000198364258 -23.257998657226562 35.17000198364258 Q -22.257998657226562 35.17000198364258 -21.757998657226562 36.42000198364258 Q -21.257998657226562 37.67000198364258 -21.257998657226562 39.720001983642575 Q -21.257998657226562 40.470001983642575 -21.557998657226562 40.99500198364258 Q -21.85799865722656 41.52000198364258 -22.70799865722656 41.82000198364258 Q -23.557998657226562 42.12000198364258 -24.95799865722656 42.345001983642575 Q -26.357998657226563 42.57000198364258 -27.85799865722656 42.57000198364258 Z M -15.37014389038086 42.17000198364258 Q -16.32014389038086 42.17000198364258 -16.770143890380858 41.69500198364258 Q -17.22014389038086 41.220001983642575 -17.22014389038086 40.17000198364258 L -17.22014389038086 9.170001983642578 Q -17.22014389038086 8.120001983642574 -16.770143890380858 7.6450019836425795 Q -16.32014389038086 7.170001983642578 -15.37014389038086 7.170001983642578 L -0.6201438903808594 7.170001983642578 Q 0.12985610961914062 7.170001983642578 0.47985610961914205 7.7700019836425795 Q 0.8298561096191435 8.370001983642574 0.8298561096191435 9.670001983642578 L 0.8298561096191435 11.220001983642575 Q 0.8298561096191435 12.520001983642576 0.47985610961914205 13.120001983642577 Q 0.12985610961914062 13.720001983642575 -0.6201438903808594 13.720001983642575 L -9.420143890380858 13.720001983642575 L -9.420143890380858 20.970001983642575 L -1.6201438903808594 20.970001983642575 Q -0.8701438903808594 20.970001983642575 -0.520143890380858 21.570001983642577 Q -0.17014389038085653 22.170001983642578 -0.17014389038085653 23.47000198364258 L -0.17014389038085653 25.020001983642576 Q -0.17014389038085653 26.320001983642577 -0.520143890380858 26.920001983642578 Q -0.8701438903808594 27.52000198364258 -1.6201438903808594 27.52000198364258 L -9.420143890380858 27.52000198364258 L -9.420143890380858 35.62000198364258 L -0.5701438903808587 35.62000198364258 Q 0.17985610961914134 35.62000198364258 0.5048561096191406 36.220001983642575 Q 0.8298561096191435 36.82000198364258 0.8298561096191435 38.12000198364258 L 0.8298561096191435 39.67000198364258 Q 0.8298561096191435 40.970001983642575 0.5048561096191406 41.57000198364258 Q 0.17985610961914134 42.17000198364258 -0.5701438903808587 42.17000198364258 L -15.37014389038086 42.17000198364258 Z" transform="matrix(-1, 0, 0, 0.8992049694061279, 4.842461109161377, 3.3163540363311768)" style="fill: rgb(51, 51, 51); white-space: pre;"/>
</svg>